# xmcd CD database file
#
# Track frame offsets:
#	150
#	19072
#	39302
#	58175
#
# Disc length: 1043 seconds
#
# Revision: 0
# Processed by: cddbd v1.5.1PL2 Copyright (c) Steve Scherf et al.
# Submitted via: CDex 1.51
#
DISCID=2b041104
DTITLE=高橋洋子   - 夜明け生まれ来る少女
DYEAR=2005
DGENRE=Soundtrack
TTITLE0=夜明け生まれ来る少女
TTITLE1=You are the one !
TTITLE2=夜明け生まれ来る少女 (Instrumental)
TTITLE3=You are the one ! (Instrumental)
EXTD=YEAR: 2005
EXTT0=
EXTT1=
EXTT2=
EXTT3=
PLAYORDER=
